<?xml version="1.0" encoding="UTF-8"?><svg id="Layer_2" xmlns="http://www.w3.org/2000/svg" xmlns:xlink="http://www.w3.org/1999/xlink" viewBox="0 0 1411.36 1411.36"><defs><style>.cls-1{fill:none;}.cls-2{clip-path:url(#clippath);}.cls-3{fill:#fbb03b;}.cls-4{fill:#fcee21;}.cls-5{fill:url(#Degradado_sin_nombre_27);}</style><clipPath id="clippath"><path class="cls-1" d="m499.02,337.61c21.04,38.55,39.43,77.95,54.92,119.07-1.75,6.62-2.59,9.92-4.22,16.48-13.58-38.21-29.72-75.01-48.1-111.14-25.1,7.17-49.75,15.24-74.24,24.25,31.58,69.16,64.68,137.78,85.87,210.77,4.93,16.99,14.27,74.29,33.87,73.06,36.76-2.31,16.8-119.54,10.84-142.32,3.25-2.69,4.89-4.03,8.19-6.71,6.43,27.12,26.57,156.6-20.28,157.77-24.45.61-36.17-66.94-42.04-84.95-22.89-70.21-56.93-136.21-90.01-202.37-24.16,9.56-47.77,20.28-71.16,31.59,33.27,27.02,64.1,55.79,91.69,88.62-.09,6.18-.13,9.23-.24,15.25-29.9-37.22-64.15-69.08-101.32-98.95-5.08-8.77-7.67-13.2-12.89-22.17,57.84-28.11,117.1-51.13,179.11-68.23Zm160.39,327.66c33.55,1.45,21.42-137.94,20.61-156.05-1.59-35.25-4.29-70.8-8.2-106.06-2.99,46.18-4.63,92.84-11.28,138.69-1.95,13.45-6.85,50.55-19.92,51.23-20.93,1.1-33.6-80.33-37.79-99.93-10.49-49.05-19.33-98.33-22.97-148.58-18.62,3.35-37.04,7.18-55.45,11.51-.56-9.76-.81-14.67-1.2-24.5,18.46-4.15,36.92-7.82,55.56-11.03,6.27,6.56,9.28,9.87,15.08,16.54.69,55.64,9.05,110.32,19.11,164.74,2.92,15.77,12.81,82.02,26.91,81.2,12.01-.69,16.71-45.35,18.33-60.08,5.81-52.78,6.69-106.15,8.59-159.17-2.68-17.41-5.49-34.78-8.91-52.07,5.63-3.64,8.5-5.44,14.37-8.98,11.2,68.68,14.19,139.16,16.15,208.29.63,22.28,13.71,169.1-30.65,167.46-25.41-.94-42.87-36.12-54.16-55.98,1.41-9.05,2.06-13.61,3.3-22.77,9.19,18.19,30.6,64.6,52.54,65.55Zm72.46-18.56c.5-104.08,6.03-207.9,14.95-311.58-12.08-.72-24.25-1.11-36.35-1.17,3.83-9.43,5.85-14.14,10.14-23.51,13.86.28,20.79.58,34.65,1.47,63.77,6.59,128.95,49.67,101.15,118.88-13.94,34.72-45.03,78.4-88.49,74.78-9.56-.8-18.44-4.08-24.62-7.01-4.11,49.34-6.76,98.7-8.09,148.19,12.8.15,25.6.41,38.39.78-2.39,9.13-3.53,13.72-5.71,22.94-19.94-.17-39.88-.25-59.82-.26,2.1-9.46,3.16-14.19,5.3-23.64,7.4.03,11.09.05,18.49.13Zm40.36-164.26c35.22,3.45,67.33-19.89,79.1-52.82,20.4-57.1-40.29-88.54-87.87-93.37-7.41,46.11-13.4,92.34-18.08,138.81,6.45,2.98,15.26,6.25,26.85,7.38Zm329.1-103.97c-39.23,31.77-76,65.47-109.09,103.65-8.73,2.62-12.94,4.01-21.11,6.94,23.03-27.6,49.07-52.09,76.35-75.42-19.01-8.9-38.36-17.07-57.91-24.68-25.03-10.07-75.66-25.16-92.02,5.79-18,34.06,31.59,64.55,55.4,78.54-3.79,8.3-5.61,12.42-9.06,20.62-7.95-12.76-20.04-25.09-33.87-30.5-36.09-14.13-52.9,35.42-60.04,61.95-5.78,21.48-27.59,144.23,14.52,144.77,14.37.18,23.06-20.21,29.02-32.7,12.49-26.15,23.18-53.06,36-79.09,2.13,4.38,3.18,6.54,5.29,10.81-11.89,23.5-22.47,47.62-34.19,71.19-7.33,14.76-17.8,38.37-36.28,38.48-52.58.31-30.53-128.61-23.9-155.44,7.34-29.66,27.79-78.07,66.98-69.71-15.89-17.16-27-38.79-15.07-61.41,20.52-38.94,79.28-36.89,114.58-23.19,21.08,8.39,41.83,17.32,62.43,26.82,7.17-5.51,10.84-8.26,18.38-13.75,5.36-1.49,8.08-2.22,13.6-3.66ZM328.87,972.36c45.3-38.29,86.67-79.31,120.3-128.35-12.25-3.97-24.44-8.33-36.44-13,3.39-1.92,5.05-2.89,8.3-4.86,17.5,4.16,35.01,7.95,52.8,10.69-16.81-22.98-22.21-56.42-12.94-83.3,8.62-25,29.17-34.05,55.02-31.5,12.06.81,24.13,1.54,36.2,2.18-2.64,8.02-4.07,11.98-7.21,19.81-14.01-1.46-27.99-3.03-41.98-4.72-15.63-2.32-33.4-1.69-38.64,15.74-10.11,33.65,9.21,74.9,44.98,83.96,4.12,1.19,6.18,1.76,10.3,2.89-5.64,7.36-8.62,10.99-14.94,18.14-14.92-3.58-29.72-7.67-44.37-12.23-33.71,49.86-78.23,90.55-125.28,127.54,26.21,12.39,52.67,23.82,79.7,34.32-10.76,6.57-16.36,9.8-28.04,16.13-47.85-19.21-93.94-41.47-139.02-66.49,12.08-3.2,24.14-6.68,36.06-10.44,14.87,8.18,29.93,16.02,45.17,23.49Zm218.33-133.3c2.04,6.31,3.07,9.5,5.16,15.92-10.39,20.85-20.05,42.18-29.76,63.3-14.56,31.68-68.95,131.78-5.06,145.07,71.99,14.98,105.96-90.71,114.45-142.78,4.06-24.91,6.33-50.79,6.75-76.51-10.89,9.49-25.95,14.96-40.06,12.78-35.29-5.47-36.51-48.79-31.84-77.27,3.2-19.52,10.41-61.01,36.15-60.79,62.94.55,43.18,167.42,38.52,200.76-8.55,61.21-44.94,173.75-128.69,154.66-76.97-17.55-18.84-122.74.88-163.7,11.4-23.68,22.59-47.49,33.49-71.43Zm51.59-2.28c14.61,2.08,29.06-3.48,39.59-13.58-1.69-23.41-3.99-83.01-36.55-85.17-19.53-1.3-28.73,25.45-31.15,41.1-3.39,21.97.61,53.74,28.12,57.65Zm159.39-39.03c1.31,19.71-6.28,43.73-25.08,53.41,26.89,33.97,48.66,71.66,57.66,114.2,14.76,69.79-17.85,123.14-93.21,122.85-21.26-.14-42.51-1.27-63.69-3.08,5.8-9.03,8.55-13.56,13.78-22.68,8.65.65,12.97.91,21.62,1.31,7.75-103.85,12.72-207.8,13.69-311.95-5.98-.08-8.97-.14-14.94-.27,2.36-9.34,3.5-14.02,5.72-23.4,7.45.08,11.18.11,18.63.14,36.84-.92,63.57,35.63,65.82,69.46Zm-60.2,266.82c60.78.81,94.81-39.1,84.06-98.11-7.44-40.82-30.38-79.82-56.25-111.96-4.58,1.68-9.64,2.3-15.1,2.34-5.87.05-15.38-1.03-23.19-2.76-2.68,70.08-6.84,140.04-12.74,209.92,9.29.37,13.94.48,23.23.56Zm13.3-228.29c21.79-.04,45.08-13,43.25-37.3-2.42-32.08-35.35-46.62-64.28-47.06-.48,27.39-1.15,54.77-2,82.15,9.91,1.76,17.78,2.22,23.03,2.21Zm54.95-66.31c-1.75-21.63,3.09-50.86,30.8-50.95,13.6-.04,27.07,3.09,40.31,6.22-1.65,8.56-2.38,12.88-3.72,21.59-6.89-2.72-20.49-9-31.22-11.44,6.78,83.87,28.52,164.57,59.15,242.05,7.72,19.52,21.03,47.29,11.31,68.76,26.46-6.05,52.49-13.1,78.41-21.19,1.97,9.68,2.94,14.55,4.81,24.34-47.3,14.17-94.93,24.83-143.81,31.79,1.55-9.83,2.24-14.75,3.49-24.56,12.65-1.83,18.97-2.87,31.62-5.22,32.66-5.07,13.47-49.11,6.77-66.96-30.46-81.14-54.17-163.09-61.71-250.55-17.15.07-22.56,13.65-21.55,28.83,1.04,15.53,6.05,30.47,13.13,44.27-1.95,7.41-2.92,11.13-4.89,18.6-8.03-17.89-11.35-36.48-12.9-55.59Zm199.56,250.25c-43.16-87.6-81.5-178.97-85.38-277.8-11.31,1.23-16.97,1.8-28.28,2.83,1.22-8.45,1.91-12.64,3.49-20.92,15.12-.8,30.23-1.72,45.34-2.77,21.34,111.24,121.23,182.74,214.23,233.25,8.78-4.7,13.16-7.11,21.94-12.06,6.38,8.49,9.63,12.79,16.19,21.51-22.52,12.28-45.24,24.14-68.48,34.98-4.93-9.22-7.39-13.79-12.24-22.83,12.05-5.75,24.01-11.77,35.81-18.01-36.01-19.14-70.81-40.07-102.76-65.52-5.34,2.48-8.01,3.69-13.34,6.07-54.99,23.73-41.87,74.64-20.38,119.15,12.13-4.2,24.21-8.69,36.14-13.44,3.32,9.44,4.98,14.2,8.29,23.78-21.06,7.91-42.23,15.22-63.69,21.96-1.79-9.8-2.72-14.67-4.61-24.36,7.1-2.25,10.65-3.42,17.75-5.83Zm14.32-140.41c2.67-1.15,4.01-1.74,6.68-2.92-41.47-39.01-72.51-81.86-90.02-136.34-3.98.47-5.98.71-9.96,1.16,2.62,82.79,30.81,159.92,64.21,234.86-7.98-34.43-11.23-81.14,29.09-96.76Z"/></clipPath><linearGradient id="Degradado_sin_nombre_27" x1="733.16" y1="1118.84" x2="733.16" y2="227.14" gradientUnits="userSpaceOnUse"><stop offset="0" stop-color="lime"/><stop offset=".4" stop-color="aqua"/><stop offset=".7" stop-color="#f0f"/><stop offset="1" stop-color="red"/></linearGradient></defs><g id="cuadros"><polygon class="cls-4" points="1411.36 705.68 1265.75 855.8 1316.89 1058.62 1115.58 1115.58 1058.61 1316.89 855.8 1265.75 705.68 1411.36 555.57 1265.75 352.75 1316.89 295.78 1115.58 94.47 1058.61 145.61 855.8 0 705.68 145.61 555.57 94.47 352.75 295.79 295.78 352.75 94.47 555.57 145.61 705.68 0 855.8 145.61 1058.62 94.47 1115.58 295.79 1316.89 352.75 1265.75 555.57 1411.36 705.68"/></g><g id="type"><path class="cls-3" d="m616.91,481.38c2.99,9.46,5.06,20.7,5.68,34.57-2.14,2.48-3.21,3.74-5.37,6.32.25-13.96-.96-25.38-3.07-35.06-12.11,1.81-24.56,3.92-37.56,6.35-3.2,21.93-6.46,51.74-22.3,98.44-4.86,14.33-34.1,78.61-13.26,76.88,38.51-3.18,66.69-108.9,68.79-121.65,2.67-1.4,4-2.09,6.65-3.46-2.41,14.8-33.18,136.01-83.2,137.75-26.32.92,10.47-77.1,15.42-92.02,14.74-44.4,17.74-73.19,20.44-94.5-13.75,2.73-28.17,5.91-43.35,9.43,6.45,9.12,11.71,20.14,14.16,34.72-2.7,3.03-4.06,4.56-6.82,7.65-1.44-17.67-7-30.41-14.01-40.79.91-2.8,1.35-4.17,2.23-6.88,35.37-7.88,66.63-13.73,95.58-17.76Zm38.91,180.93c33.21,1.95,30.49-115.3,30.73-124.35.41-15.37.21-28.48-.54-39.62-3.17,14.94-6.31,33.53-13.47,56.57-2.46,7.93-10.03,33.44-20,33.97-16.06.85-9.79-49.23-9.3-58.27,1.03-19.18,2.63-34.68,6.21-47.63-8.11.79-16.29,1.7-24.66,2.75,1.13-2.34,1.7-3.49,2.85-5.73,7.98-.92,15.81-1.72,23.56-2.42,1.94,1.43,2.88,2.16,4.69,3.66-4.75,14.09-6.65,31.34-8.04,53.25-.48,7.52-4.75,47.43,5.72,46.84,8.88-.5,16.78-28.77,19.02-36.61,6.74-23.65,9.66-42.27,12.43-57.08-.59-4.24-1.19-8.21-2-11.93,2.31-.76,3.48-1.12,5.84-1.85,3.2,15.72,3.2,36.79,2.62,64.95-.23,11.36,6.47,144.66-40.19,142.17-26.41-1.41-31.53-46.51-35.03-66.86,3.88-8.33,5.69-12.32,9.11-19.98,2.58,15.7,8.98,66.89,30.47,68.16Zm69.98-22.93c-6.73-84.02-7.88-129.77-7.21-158.57-4.96-.16-9.93-.25-14.87-.26,1.5-2.09,2.28-3.11,3.9-5.09,5.43.06,8.15.12,13.62.31,25.54,1.39,57.13,11.34,54.81,31.17-1.44,12.34-11.65,31.02-37.75,29.31-5.68-.37-11.09-1.89-14.84-3.21.36,25.38,1.96,59.15,5.42,106.4,11.78.17,23.6.47,35.47.9.09,10.91.21,16.72.55,29.09-20.27-.24-40.51-.34-60.73-.36,1.95-12.65,2.87-18.6,4.65-29.82,6.79.03,10.19.06,16.99.15Zm12.85-113.33c20,1.45,33.92-7.9,34.71-19.5,1.14-16.66-28.06-24.37-47.92-25.48-1.19,11.43-1.91,25.14-2.06,41.96,3.69,1.2,8.76,2.55,15.27,3.02Zm138.41-34.6c-7.07,9-13.19,19.93-16.59,34.46-3.86,1.09-5.69,1.68-9.19,2.93,2.67-11.11,7.56-19.86,12.94-27.36-11.81-2.67-23.15-5.05-34.09-7.19-13.6-2.74-38.66-6.64-40.61,1.62-2.45,10.36,29.54,21,46.32,26.4.58,3.37.92,5.1,1.7,8.64-8.56-5.44-18.72-10.4-27.51-12.49-21.94-5.21-20.89,14.68-19.06,27.51,1.68,11.81,28.77,122.21,71.74,122.96,14.71.26,8.28-25.83,5.4-39.78-5.2-25.26-11.22-46.82-14.46-64.42,3.45,2.77,5.2,4.16,8.72,6.97,3.44,16.86,8.89,37.11,13.99,60.59,3.7,17.04,12,49.08-7.4,49.24-55.27.46-82.32-121.75-84.34-136.57-1.92-14.09-.2-33.1,21.67-30.11-11.82-6.01-21.28-12.98-19.59-19.63,2.58-10.15,27.83-9.65,46.12-6.22,11.44,2.19,23.27,4.6,35.64,7.25,1.43-1.55,2.18-2.31,3.75-3.81,1.89-.4,2.86-.6,4.82-.98Zm-512.86,497.16c51.44-28.05,97-56.35,134.48-88.03-9.82-2.47-19.49-5.16-28.87-8.03,3.19-1.17,4.76-1.77,7.83-2.97,14.11,2.54,28.36,4.86,43.07,6.55-10.98-13.95-10.77-33.48.31-48.55,9.96-13.54,27.15-18.33,47.19-16.98,9.41.43,18.84.81,28.28,1.15-2.7,4.27-4.15,6.4-7.28,10.63-11.04-.79-22.03-1.64-32.98-2.56-12.16-1.25-26.34-.91-32.68,8.59-12.66,18.99-2.19,43.49,27.01,49.06,3.37.73,5.06,1.09,8.45,1.79-5.64,4.6-8.62,6.89-14.91,11.42-12.42-2.28-24.6-4.86-36.51-7.73-37.48,32.4-85.73,60.66-138.45,87.91,21.55,9.49,44,18.4,67.61,26.73-11.93,5.29-18.15,7.91-31.12,13.08-41.44-15.54-79.02-32.95-113.47-51.82,12.25-2.36,24.49-4.91,36.63-7.65,11.38,5.99,23.18,11.8,35.38,17.41Zm218.63-91.1c1.16,3.93,1.75,5.92,2.96,9.97-11,13.4-21.75,27.54-32.86,41.98-17.34,22.54-86.48,101.56-24.64,113.05,71.36,13.26,112.64-73.69,123.13-111.46,4.73-17.05,7.77-34.1,9.12-50.44-9.72,5.96-22.96,9.43-35,8.04-29.95-3.46-27.44-29.93-21.4-46.49,4.01-10.98,12.5-33.4,32.67-33.28,49.35.29,28.65,98.82,23.26,121.45-10.64,44.65-54.57,139.02-138.28,121.74-74.58-15.39.63-98.99,24.11-127.99,12.93-15.98,25.26-31.5,36.94-46.57Zm44.03-1.41c12.31,1.28,24.83-2.14,34.13-8.3-.56-13.95-.31-47.5-26.09-48.67-15.42-.7-24.54,13.96-27.61,22.78-4.41,12.7-3.49,31.78,19.57,34.18Zm134.08-23.44c1.75,11.68-3.88,26.35-19.71,32.41,24.34,21.93,45.52,47.56,56.35,78.29,19.41,55.07-9.52,101.61-87.36,101.35-21.95-.13-43.85-1.16-65.58-2.8,6.45-8.12,9.49-12.16,15.23-20.18,8.71.56,13.07.79,21.81,1.15,9.74-83.56,15.64-154.77,17.52-216.23-4.79-.04-7.18-.07-11.97-.15,2.04-5.09,3.02-7.63,4.91-12.65,5.88.04,8.82.06,14.7.08,29.06-.49,51.21,19.42,54.11,38.75Zm-50.23,190.91c61.56.71,92.98-33.16,78.78-79.4-9.08-29.58-31.19-56.19-54.48-77-3.92,1.06-8.27,1.46-12.98,1.49-5.06.03-13.25-.65-19.96-1.75-3.01,46.66-7.78,98.4-14.86,156.17,9.4.32,14.1.42,23.5.49Zm11.7-167.79c18.5-.02,37.85-7.94,35.55-22.41-2.92-18.37-29.73-26.44-52.92-26.69-.55,15.33-1.26,31.23-2.17,47.74,8.4,1.08,15.09,1.37,19.54,1.36Zm44.17-39.06c-2.16-12,.66-27.67,22.38-27.72,10.66-.02,21.43,1.63,32.05,3.29-.7,4.57-.98,6.89-1.42,11.62-5.68-1.48-16.9-4.88-25.55-6.19,10.41,47.71,35.18,99.19,71.1,154.75,9.75,15.08,26.44,37.35,19.92,55.27,25.39-5.11,49.91-11.01,73.84-17.69,3.9,8.01,5.86,12.08,9.77,20.37-44.79,12.25-91.48,21.65-140.68,27.89.63-8.78.85-13.12,1.15-21.67,12.52-1.58,18.75-2.48,31.15-4.5,31.93-4.32,7.19-40.43-1.34-54.35-35.9-58.64-62.1-111.13-72.88-160.9-13.58.04-17.37,7.38-15.99,15.76,1.44,8.75,6.17,17.34,12.66,25.42-1.27,4.41-1.91,6.64-3.22,11.15-7.5-10.73-10.98-21.61-12.94-32.5Zm205.53,169.39c-56.48-66.59-102.24-127.25-115.57-184.61-8.9.67-13.36.98-22.3,1.54.29-4.58.51-6.82,1.09-11.23,11.83-.42,23.63-.91,35.4-1.46,30.4,63.3,129.45,109.5,226.77,145.2,6.72-3.44,10.04-5.19,16.61-8.77,8.51,6.16,12.87,9.31,21.8,15.77-17.16,9.23-34.97,18.33-53.92,26.79-7.39-7.21-11.02-10.74-18.12-17.65,9.73-4.35,19.22-8.86,28.4-13.49-38.49-13.93-75.19-28.7-109.13-46.05-4.24,1.66-6.37,2.48-10.65,4.08-45.11,16.3-24.25,53.32,5.14,88.17,10.88-3.39,21.57-7,31.98-10.79,5.48,7.55,8.26,11.4,13.89,19.25-18.8,6.57-38.1,12.72-58.04,18.45-3.81-8.31-5.72-12.4-9.53-20.43,6.5-1.85,9.74-2.8,16.17-4.77Zm-13.9-102.64c2.13-.76,3.2-1.14,5.32-1.91-42.15-24.79-73.87-50.5-94.15-81.07-3.12.26-4.68.38-7.81.63,10.8,47.47,44.96,96.91,87.78,150.67-13.52-25.47-24.05-57.94,8.86-68.31Z"/><path d="m696.94,1106c-20.27-.13-41.23-1.14-64.1-3.1l-3.84-7.81c5.69-8.86,8.37-13.26,13.65-22.46l4.78-2.54c6.83.51,10.9.78,16.54,1.06,7.91-107.22,12.25-206,13.26-301.63-3.18-.05-5.86-.11-9.93-.2l-4.81-6.32c2.41-9.51,3.54-14.16,5.7-23.32l5-3.91c7.41.08,11.13.11,18.52.14.47-.01.95-.02,1.42-.02,18.2,0,35.53,8.52,48.8,23.98,11.97,13.96,19.53,32.27,20.72,50.24,1.29,19.32-5.33,42.88-22.64,55.12,29.19,37.9,47.24,74.51,55.12,111.78,8.13,38.42,2.21,72.39-16.66,95.67-17.66,21.79-45.64,33.31-80.91,33.31h-.63Zm-17.28-34.17c6.09.21,10.45.3,17.77.36.6,0,1.18.01,1.76.01h0c27.77,0,49.79-8.8,63.68-25.43,13.81-16.56,18.51-39.62,13.58-66.7-6.18-33.92-24.51-70.85-53.06-106.99-3.87,1.01-8.18,1.5-13.25,1.55h-.43c-4.94,0-11.63-.66-17.96-1.73-2.68,67.78-6.74,134.65-12.08,198.94Zm13.21-229.36c7.81,1.16,13.81,1.43,17.67,1.43h.14c12.49-.02,24.55-4.69,31.49-12.18,5.02-5.43,7.28-12.04,6.7-19.66-1.44-19.09-19.02-39.82-54.23-42.16-.45,24.34-1.04,48.7-1.77,72.58Zm113.79,250.59c1.52-9.59,2.2-14.38,3.46-24.4l4.31-4.39c12.61-1.82,18.78-2.84,31.42-5.19l.15-.03c5.74-.89,9.6-3.16,11.79-6.94,6.87-11.86-2.55-36.4-7.61-49.59-.5-1.3-.97-2.52-1.38-3.63-34.9-92.97-54.51-171.56-61.55-246.79-2.94.64-5.31,1.94-7.15,3.92-3.61,3.87-5.29,10.63-4.73,19.03.9,13.56,5.14,27.79,12.58,42.29l.39,3.61-4.89,18.61-9.54.78c-7.24-16.14-11.47-34.33-13.32-57.26-.94-11.64-.71-33.14,11.38-46.3,6.15-6.69,14.38-10.1,24.46-10.14h.3c14.28,0,28.58,3.38,41.2,6.36l3.82,5.9c-1.6,8.31-2.32,12.51-3.68,21.4l-6.89,3.95c-1.53-.61-3.4-1.39-5.49-2.26-5.24-2.19-11.88-4.98-18.18-7.03,6.87,75.3,25.93,151.71,58.19,233.32.76,1.91,1.57,3.91,2.41,5.97,6.72,16.53,15.58,38.32,11.7,57.69,23.07-5.49,46.37-11.89,69.37-19.07,3.25-1.04,5.82-1.87,8.92-2.91-40.55-82.83-78.06-172.58-83.1-269.22-8.08.86-13.52,1.4-22.99,2.26l-5.49-5.78c1.26-8.77,1.96-12.92,3.53-21.15l4.72-4.12c14.99-.8,30.22-1.72,45.26-2.76l5.34,4.11c21.81,113.7,129.18,184.7,209.26,228.44,7.25-3.89,11.51-6.24,19.43-10.71l6.55,1.37c4.75,6.32,16.19,21.51,16.19,21.51l-1.63,7.51c-26.44,14.41-48.29,25.57-68.77,35.12l-6.62-2.21c-4.02-7.52-6.4-11.95-9.77-18.23l-2.46-4.59,2.29-6.99c9.05-4.32,18.15-8.84,27.16-13.49-37.11-20.15-66.79-39.24-92.61-59.54-3.7,1.71-6.25,2.86-10.58,4.78-16.99,7.33-27.66,17.41-32.67,30.85-7.01,18.81-2.93,43.47,12.86,77.36,10.57-3.72,21.19-7.71,31.63-11.86l6.67,3.04c3.32,9.45,4.99,14.22,8.3,23.81l-3.02,6.41c-20.09,7.54-40.45,14.6-60.52,20.97v-.05s-.07.1-.07.1l-1.57.47-1.79.56-.1-.06.02.05c-47.46,14.04-93.61,24.16-141.11,30.93l-5.73-5.82Zm84.81-334.14c3.05,69.62,24.73,135.87,48.94,194.29-.15-7.32.34-14.09,1.45-20.28,3.98-22.11,15.86-37.24,35.3-44.95-41.48-40.3-68.49-81.61-84.51-129.19-.4.05-.79.09-1.18.14Zm-360.8,335.21c-6.34,0-12.91-.77-19.55-2.28-18.17-4.14-30.72-13.26-37.32-27.11-17.71-37.2,12.3-98.11,30.23-134.5,1.65-3.35,3.18-6.45,4.52-9.24,11.82-24.55,23.07-48.55,33.44-71.33l9.45.54.91,2.81c1.49,4.6,2.49,7.71,4.25,13.1l-.28,3.84c-8.98,18.04-17.57,36.74-25.87,54.82l-3.83,8.33c-1.24,2.69-2.76,5.88-4.47,9.46-13.17,27.52-40.58,84.79-26.7,112.85,4.08,8.24,11.45,13.37,22.54,15.68,4.25.89,8.48,1.33,12.56,1.33,25.56,0,47.95-17.23,66.52-51.21,19.65-35.95,27.42-77.02,29.33-88.75,3.48-21.34,5.63-43.35,6.42-65.56-8.81,5.28-18.76,8.2-28.41,8.2-2.39,0-4.77-.18-7.08-.54-11.39-1.77-20.45-7.18-26.91-16.1-14.84-20.47-11.35-53.69-9.16-67.02,3.2-19.46,10.68-65.04,40.96-65.04h.25c10.94.1,20.29,4.56,27.8,13.26,14.87,17.24,22.39,51.49,22.38,101.81-.01,40.72-5.1,80.31-6.66,91.47-2.43,17.35-10.41,61.95-32.16,101.35-21.61,39.14-50.36,59.83-83.14,59.83Zm69.2-338.35c-15.09,0-22.8,24.1-24.77,36.84-2.02,13.1-1.28,31.01,6.87,42,4.15,5.6,9.69,8.82,16.94,9.85,1.78.25,3.6.38,5.41.38,10.12,0,20.06-3.9,28.23-11.02-.03-.48-.07-.97-.1-1.47-1.53-22.38-5.1-74.78-31.55-76.54-.34-.02-.69-.03-1.02-.03Zm-215.69,287.44c-46.97-18.86-92.63-40.7-139.59-66.76l1.17-9.35c12.12-3.21,24.18-6.7,35.84-10.37l3.97.39c13.88,7.63,27.99,14.99,41.98,21.91,48.51-41.26,84.62-79.48,112.99-119.64-10.12-3.4-20.25-7.07-30.22-10.95l-.65-9.15c3.36-1.9,4.96-2.84,8.16-4.78l3.81-.6c16.01,3.81,29.19,6.61,41.28,8.76-12.79-23.48-15.87-53.51-7.4-78.09,7.97-23.12,25.84-35.34,51.66-35.34,2.76,0,5.65.15,8.57.43,12,.81,24.13,1.53,36.05,2.17l4.55,6.66c-2.7,8.2-4.21,12.34-7.31,20.1l-5.24,3.17c-13.95-1.45-28.1-3.04-42.07-4.73l-.14-.02c-4.15-.62-7.77-.92-11.08-.92-16.15,0-20.26,7.47-21.95,13.09-4.77,15.89-2.44,34.5,6.22,49.8,8.05,14.21,20.53,24.07,35.14,27.77l.16.04c4.1,1.18,6.14,1.75,10.23,2.87l2.7,7.99c-5.74,7.49-8.86,11.28-15.16,18.42l-4.99,1.58c-13.67-3.28-27.48-7.05-41.1-11.21-27.93,40.5-64.58,78-117.77,120.47,23.93,11.13,48.1,21.44,71.95,30.7l.81,9.07c-10.87,6.64-16.68,9.99-28.27,16.26l-4.31.25Zm160.78-370.72c-23.68,0-35.15-44.81-42.74-74.47-1.49-5.8-2.77-10.82-3.8-13.99-21.09-64.7-52.28-126.94-82.44-187.12-1.73-3.46-3.47-6.92-5.2-10.37-18.39,7.4-37.5,15.86-59.32,26.27,33.95,28.07,62.2,55.68,86.19,84.22l1.19,3.34-.02,1.45c-.08,5.25-.12,8.27-.21,13.8l-9.04,3.09c-26.88-33.46-58.83-64.65-100.54-98.17l-1.21-1.41c-4.48-7.72-7.01-12.08-11.12-19.14l-1.76-3.02,2.17-7.12c60.54-29.43,119.41-51.85,179.98-68.55l5.81,2.46c21.98,40.27,40.04,79.43,55.21,119.71l.16,3.09c-1.78,6.73-2.61,10-4.21,16.41l-9.71.47c-12.67-35.65-27.72-70.62-45.95-106.8-21.49,6.23-43.21,13.32-64.71,21.1,2.81,6.13,5.62,12.26,8.44,18.38,27.78,60.45,56.5,122.96,75.41,188.08.9,3.11,1.92,7.41,3.1,12.4,2.63,11.1,6.24,26.31,11,38.34,6.44,16.25,11.7,18.68,14.26,18.68.1,0,.2,0,.3,0,3.46-.22,6.19-1.86,8.59-5.18,17.3-23.92,2.89-110.75-2.35-130.78l1.68-5.2c3.27-2.7,4.91-4.05,8.23-6.74l8.14,2.77c5.32,22.46,21.4,120.24-3.69,152.79-5.57,7.23-12.77,11.01-21.4,11.22h-.45Zm318.6,0c-10.17,0-18.55-4.12-24.91-12.24-11.19-14.29-15.78-40.98-13.64-79.31,1.71-30.76,7.23-59.36,9.91-70.19,4.23-17.09,20.89-72,60.38-74.44-11.48-15.58-19.47-36.14-8.03-57.83,11.85-22.49,36.82-34.87,70.3-34.87,17.16,0,35.13,3.31,50.61,9.32,19.9,7.92,40.04,16.55,59.93,25.66,5.73-4.39,9.35-7.08,16.06-11.96l1.63-.79c5.46-1.52,8.14-2.24,13.69-3.68l4.47,8.86c-43.2,34.98-78.67,68.68-108.45,103.03l-2.38,1.54c-8.59,2.58-12.69,3.92-20.85,6.85l-5.62-8.03c19.05-22.84,41.72-45.49,70.96-70.86-15.94-7.28-32.53-14.26-50.47-21.24-11.48-4.62-33.56-12.33-53.06-12.33-16.35,0-27.03,5.16-32.63,15.76-14.59,27.61,23.53,54.19,53.48,71.79l2.05,6.49c-3.83,8.37-5.59,12.39-9,20.48l-8.99.72c-8.47-13.59-19.92-23.96-31.41-28.46-3.62-1.42-7.12-2.14-10.41-2.14-17.62,0-32.04,20.41-42.87,60.68-5.42,20.16-20.05,107.77-1.36,132.48,2.99,3.96,6.5,5.83,11.05,5.89h.13c10.16,0,17.95-16.49,23.11-27.4l1.14-2.41c5.7-11.93,11.12-24.26,16.37-36.18,6.23-14.15,12.67-28.78,19.65-42.96l9.12.02c2.12,4.37,3.18,6.53,5.27,10.78l-.02,4.54c-6.34,12.53-12.42,25.48-18.3,38-5.12,10.9-10.41,22.17-15.87,33.16l-1.32,2.67c-7.54,15.33-18.94,38.51-39.48,38.63h-.22Zm-205.69-.34c-.3,0-.61,0-.92-.02-26.22-.97-43.87-32.58-55.55-53.5-.99-1.77-1.93-3.46-2.83-5.05l-.6-3.29c1.45-9.28,2.09-13.79,3.28-22.67l9.57-1.61c.68,1.34,1.42,2.84,2.23,4.46,8.58,17.22,28.66,57.56,45.99,58.31.1,0,.3,0,.3,0,1.18,0,2.99-.26,5.13-2.54,5.11-5.45,11.44-21.17,12.52-65.18.72-29.45-1.23-60.4-2.17-75.27-.22-3.46-.39-6.11-.46-7.77-.58-12.91-1.31-25.79-2.18-38.6-1.64,23.91-3.76,48.02-7.19,71.72l-.2,1.37c-3.99,27.69-9.71,53.43-24.48,54.2-.23.01-.46.02-.68.02-18.5,0-29.54-37.66-40.41-94.2-.76-3.96-1.42-7.38-1.93-9.76-8.34-38.98-18.35-90.17-22.64-143.63-16.51,3.07-33.19,6.57-49.65,10.45l-6.23-4.65c-.55-9.58-.8-14.48-1.21-24.59l3.96-5.16c18.53-4.16,37.31-7.89,55.81-11.08l4.53,1.5c6.23,6.53,9.37,9.96,15.24,16.72l1.25,3.27c.72,57.62,10.02,115.18,19.03,163.88.3,1.61.67,3.74,1.11,6.27,1.83,10.56,4.9,28.25,8.95,43.62,6.25,23.71,10.87,26.79,11.62,27.14.52-.27,4.44-2.87,8.41-21.13,2.67-12.3,4.2-26.19,5.02-33.65l.08-.77c4.78-43.49,6.23-88.16,7.64-131.36.29-8.99.58-17.98.9-26.95-2.53-16.39-5.34-33.94-8.8-51.38l2.22-5.25c5.69-3.68,8.67-5.55,14.5-9.07l7.63,3.53c11.49,70.41,14.31,141.84,16.22,208.96.06,2.22.26,5.83.51,10.39,3.25,59.61,4.14,131.02-18.01,154.42-4.95,5.23-10.83,7.88-17.49,7.89h0Zm109.39-8.02c-18.94-.16-38.5-.24-59.78-.26l-4.95-6.18c2.11-9.47,3.16-14.2,5.31-23.66l4.97-3.95c5.51.02,8.97.04,13.42.08.61-95.32,5.35-194.12,14.5-301.67-10.26-.53-20.62-.82-30.87-.87l-4.68-6.99c3.95-9.73,5.96-14.38,10.23-23.72l4.72-2.96c14.02.28,20.87.57,34.87,1.48l.19.02c45.26,4.68,84.26,25.61,101.78,54.64,12.63,20.93,13.86,45.55,3.57,71.19-15.18,37.79-46.3,78.17-88.15,78.17-1.81,0-3.65-.08-5.48-.23-7.32-.61-14.15-2.55-19.71-4.65-3.56,44.28-6.04,89.89-7.36,135.75,11.12.16,22.31.4,33.32.72l4.76,6.36c-2.31,8.83-3.43,13.31-5.68,22.82l-4.99,3.91Zm-17.05-203.65c5.24,2.17,12.52,4.57,21.92,5.49,2.12.21,4.28.31,6.4.31,29.69,0,56.78-20.01,67.42-49.79,6.05-16.94,4.79-32.38-3.75-45.9-14.37-22.75-47.22-36.26-75.1-40.13-6.75,42.57-12.43,86.27-16.9,130.02Z"/><g class="cls-2"><polygon class="cls-5" points="1161.46 1114.85 304.86 1118.84 304.86 252.53 1161.46 227.14 1161.46 1114.85"/></g></g></svg>
