<?xml version="1.0" encoding="UTF-8"?><svg xmlns="http://www.w3.org/2000/svg" xmlns:xlink="http://www.w3.org/1999/xlink" viewBox="0 0 1920 1360.3"><defs><style>.cls-1,.cls-2{fill:none;}.cls-2{stroke:#fff;stroke-width:3px;}.cls-2,.cls-3{stroke-miterlimit:10;}.cls-4{clip-path:url(#clippath);}.cls-3{stroke:url(#Degradado_sin_nombre_30);}.cls-3,.cls-5{fill:#fff;}.cls-6{fill:url(#Degradado_sin_nombre_30-4);stroke:url(#Degradado_sin_nombre_30-5);}.cls-7{fill:url(#Degradado_sin_nombre_30-6);stroke:url(#Degradado_sin_nombre_30-7);}.cls-8{fill:url(#Degradado_sin_nombre_30-2);stroke:url(#Degradado_sin_nombre_30-3);}.cls-9{fill:url(#Degradado_sin_nombre_30-8);}</style><clipPath id="clippath"><rect class="cls-1" y="-1765.37" width="1920" height="1360.3"/></clipPath><linearGradient id="Degradado_sin_nombre_30" x1="237.82" y1="97.88" x2="331.06" y2="97.88" gradientUnits="userSpaceOnUse"><stop offset="0" stop-color="lime"/><stop offset=".33" stop-color="blue"/><stop offset=".75" stop-color="#f0f"/><stop offset="1" stop-color="red"/></linearGradient><linearGradient id="Degradado_sin_nombre_30-2" x1="0" y1="35.01" x2="1920" y2="35.01" xlink:href="#Degradado_sin_nombre_30"/><linearGradient id="Degradado_sin_nombre_30-3" x1="0" y1="35.01" x2="1920" y2="35.01" xlink:href="#Degradado_sin_nombre_30"/><linearGradient id="Degradado_sin_nombre_30-4" x1="0" y1="97.88" x2="1920" y2="97.88" xlink:href="#Degradado_sin_nombre_30"/><linearGradient id="Degradado_sin_nombre_30-5" x1="0" y1="97.88" x2="1920" y2="97.88" xlink:href="#Degradado_sin_nombre_30"/><linearGradient id="Degradado_sin_nombre_30-6" x1="0" y1="160.75" x2="1920" y2="160.75" xlink:href="#Degradado_sin_nombre_30"/><linearGradient id="Degradado_sin_nombre_30-7" x1="0" y1="160.75" x2="1920" y2="160.75" xlink:href="#Degradado_sin_nombre_30"/><linearGradient id="Degradado_sin_nombre_30-8" x1="300" y1="680.15" x2="1620" y2="680.15" xlink:href="#Degradado_sin_nombre_30"/></defs><g id="Capa_1"><polyline class="cls-5" points="1920 0 1920 1360.3 0 1360.3 0 0"/></g><g id="Capa_2"><g class="cls-4"><circle class="cls-3" cx="284.44" cy="97.88" r="46.12"/><g><line class="cls-8" y1="35.01" x2="1920" y2="35.01"/><line class="cls-6" y1="97.88" x2="1920" y2="97.88"/><line class="cls-7" y1="160.75" x2="1920" y2="160.75"/></g></g><path d="m0,1360.3h247.53C127.43,1234.53,40.3,1077.01,0,901.61v458.7Z"/><path d="m0,0v458.7C40.3,283.29,127.43,125.77,247.53,0H0Z"/><path d="m1920,901.61c-40.3,175.4-127.43,332.92-247.53,458.7h247.53v-458.7Z"/><path d="m1920,0h-247.53c120.1,125.77,207.23,283.29,247.53,458.7V0Z"/></g><g id="Capa_3"><g><circle class="cls-9" cx="960" cy="680.15" r="660"/><rect x="430.71" y="88.14" width="1032.13" height="1184.02"/><g><g><path class="cls-5" d="m581.87,202.12c-1.2.24-2.41.14-3.64-.33-9.07-3.38-18.24-4.64-27.32-2.99-4.45.81-9.28,2.49-14.43,5.15-5.15,2.67-10.63,6.33-16.35,11.15-1.11,29.14-2.55,58.27-3.93,87.39,2.9-2.26,12.93-11.04,31.53-24.34,10.62-7.59,17.58-11.71,20.45-12.98,3.32-1.47,5.92-.44,7.75,2.91,1.83,3.35,2.28,8.56,1.36,15.79-1.76,13.88-6.31,24.22-13.31,30.23-4.14,3.55-11.11,8.99-19.2,16.77-7.47,7.18-18.53,18.19-32.03,33.46-.97,19.08-1.62,34.46-2,46.02-.96,29.05-1.05,44.92-.26,47.54.37,1.26,2.82-1.58,7.62-8.34,2.59-3.64,6.54-9.33,12.11-16.86,5.57-7.53,9.94-12.9,12.85-16.32.94-1.1,2.36-3.11,4.3-5.98,1.94-2.87,3.38-4.79,4.3-5.81,2.81-3.11,5.03-3.67,6.59-2,1.75,1.87,2.21,6.65,1.22,14.5-1.64,13.13-5.51,24.48-11.21,34.58-4.88,8.65-14.59,23.22-27.03,44.9-12.87,22.44-20.52,31.07-22.63,24.75-8.42-25.19-5.24-59.88-5.39-89.51-.16-32.38.61-65.17,1.4-97.73.78-32.14,1.66-64.34,1.84-96.47.03-5.54-.21-13.66-.75-24.42-.54-10.76-.82-18.98-.8-24.55.05-24.22,4.43-36.44,13.13-36.63,2.74-.06,5.22,1.79,7.4,5.45,7.29-4.63,14.31-7.88,20.96-9.98,6.65-2.1,12.92-3.06,18.75-3.06,15.81,0,28.11,3.73,36.66,10.21,5.21,3.91,7.08,10.94,5.66,21.43-.8,5.93-2.65,11.31-5.39,16.28-3.12,5.66-6.5,9.03-10.21,9.78Z"/><path class="cls-5" d="m657.44,331.41c-8.45,9.25-20.88,21.34-36.21,37.65-14.05,14.95-24.68,27.33-32.5,35.63-13.22,14.03-17.47,9.73-14.02-14.06-.27,1.88,2.78-16.32,9.28-53.87,9.19-53.11,17.82-106.4,25.9-159.63.94-6.21,2.94-11.63,6.06-16.08,3.12-4.45,6.56-6.66,10.31-6.78,3.74-.13,6.52,1.83,8.29,5.73,1.78,3.9,2.14,8.6,1.12,14.27-8.92,49.5-18.16,99.62-28.81,148.18-1.82,8.31-4.67,21.11-8.15,38.26,13.29-11.72,31.97-31.62,57.28-54.67,1.57-1.43,3.01-2.53,4.33-3.3,3.96-2.31,6.75-2.27,8.35-.12,1.43,1.92,1.68,4.8.7,8.74-1.66,6.64-5.67,13.19-11.94,20.04Z"/><path class="cls-5" d="m943.48,230.41c0,2.11-.68,5.45-2.09,10-1.68,5.43-7.87,8.13-18.39,8.54-5.84.23-12.34-1.07-19.21-3.91-31.34-12.7-61.19-30.08-84.03-55.42-3.77,13.24-6.07,21.4-6.83,24.4-1.03,4.02-2.45,10.04-4.26,18.06-1.81,8.02-3.22,14.02-4.24,18.02-3.82,14.96-11.31,24.06-22.23,27.85-5.53,1.92-9.6,2.36-12.2,1.11-2.3-1.11-2.99-3.26-2.13-6.42.61-2.22,1.77-5.66,3.48-10.3,1.7-4.64,2.85-8.05,3.46-10.26.89-3.26,2.38-8.19,4.45-14.78,2.07-6.58,3.54-11.49,4.43-14.74.95-3.47,2.28-8.68,4-15.64,1.72-6.96,3.06-12.19,4.01-15.67.91-3.31,1.86-8.19,2.89-14.7,1.03-6.51,2.02-11.47,2.93-14.81.92-3.34,3.39-6.4,7.36-9.05,3.97-2.66,8.02-3.96,12.18-4.01,4.67-.06,8.94,3.25,13.1,9.48,26.04,30.94,46.14,46.16,81.63,65.46.18-1.37.47-4.61.87-9.72,1.63-21.01,2.38-35.17,2.29-42.49-.04-1.23-.29-3.54-.74-6.89-.4-2.97-.53-5.32-.39-7.03.51-5.9,5.41-8.87,14.69-8.88,10.36-.02,15.6,10.59,15.69,31.81,0,.46-.06,3.81-.17,10-.38,21.4-.58,34.76-.57,39.99Z"/><path class="cls-5" d="m1050.54,261.71c-23.43-5.25-44.82-11.89-62.34-20.67-18.71-9.37-27.8-19.31-28.36-31.55-.66-14.39,6.74-27.3,19.84-38.95,14.72-13.09,32.3-20.04,55.39-19.66,22.2.37,39.81,4.71,53.48,14.36,13.67,9.64,23.37,24.71,28.64,43.56,5.58,19.97,4.1,36.37-5.85,47.07-11.49,12.35-31.97,12.29-60.79,5.84Zm-11.01-91.34c-14.76-.94-26.33,3.5-35.79,12.4-8.86,8.33-13.2,17.66-11.87,28.33.89,7.2,6.51,13.36,17.18,19.12,10.26,5.54,22.92,9.6,37.38,12.41,16.83,3.27,29.38,1.59,37.11-6.95,7.08-7.82,8.46-18.91,4.82-32.39-3.05-11.28-8.32-19.6-15.68-24.49-7.02-4.68-17.99-7.47-33.14-8.43Z"/><path class="cls-5" d="m1175.55,304.15c-4.09-2.22-7.91-5.3-11.41-9.18-3.49-3.88-5.73-7.51-6.71-11.03-1.75-6.29-4.05-15.56-6.91-27.94-2.86-12.38-5.19-21.8-6.95-28.13-1.95-7.03-5.04-17.61-9.24-31.7-4.2-14.08-7.26-24.59-9.21-31.6-.97-3.47-.24-6.8,2.14-10.18,2.38-3.38,5.44-5.13,9.21-5.06,2.08.04,7.92,2.1,17.41,6.87,11.14,5.59,17.77,9.34,19.77,10.16,20.29,8.65,38.79,23.18,55.4,43.67,17.7,21.85,32.2,54.61,37.04,82.31,2.91,16.69,3.63,31.48,1.64,42.57-2.04,11.36-6.39,17.62-13.45,18.94-7.91,1.48-21.19-5.95-40.94-19.24-4.79-3.22-10.58-7.63-17.37-13-8.24-6.52-15.1-12.28-20.42-17.46Zm26-89.18c-7.28-6.47-22.29-17.36-45.12-29.47,9.22,34.33,18.44,68.65,27.66,102.98,3.08,3.03,6.41,5.89,9.99,8.57,3.58,2.68,7.4,5.18,11.44,7.49,14.08,8.03,23.19,12.03,27.87,10.76,4.42-1.2,7.26-5.07,8.58-11.68,1.32-6.61.97-14.82-1.06-24.21-4.73-21.97-17.63-45.18-39.37-64.42Z"/><path class="cls-5" d="m1347.79,463.78c-15.59-23.05-28.69-49.46-40.25-74.49-13.02-28.2-26.01-58.69-30.45-88.85-4.31-29.26-6.33-60.42,2.83-89.94,9.42-30.38,25.74-49.66,48.12-48.38,21.52,1.24,38.81,13.49,48.95,39.54,14.11,36.27,15.86,79.44,15.19,118.39-.75,43.79-2.07,88.12-11.32,131.01-7.62,35.34-17.17,36.2-33.07,12.7Zm-15.36-248.28c-13.02-3.17-23.03,8.11-29.03,29.94-5.61,20.41-6.2,42.75-2.27,70.14,2.65,18.48,8.39,35.97,16.62,54.15,7.91,17.48,16.35,31.88,25.24,42.1,10.34,11.9,17.17,8.15,22.26-15.47,6.34-29.39,6.22-60.15,5.67-89.6-.57-30.64-4.25-53.92-10.06-67.43-5.53-12.87-15.06-20.59-28.42-23.84Z"/></g><g><path class="cls-5" d="m513.44,943.22c-5.74-.5-10.61-3.89-14.48-10.46-3.88-6.57-5.74-14.51-5.74-23.48,0-16.02.43-40.01,1.17-71.58.74-31.57,1.02-55.09.96-70.98-.06-17.64-.35-44.22-.74-79.93-.39-35.7-.54-62.49-.57-80.19-.02-8.77,1.39-14.77,4.15-17.48,2.76-2.72,5.7-.46,9.13,6.14,1.89,3.63,6.71,17.61,15.89,39.67,10.78,25.92,18.26,39.36,20.51,43.16,22.01,36.49,45.19,72.2,69.43,107.1,19.24,27.71,42.19,56.38,50.16,89.41,3.5,14.51,2.21,27.56-3.08,39.99-5.38,12.64-14.42,23.44-27.3,32.33-14.46,9.97-36.89,16.42-66.85,16.42-7.27,0-15.8-1.31-25.34-4.37-11.58-3.72-20.71-9.02-27.28-15.75Zm59.23-173.44c-18.99-27-35.82-54.57-51.73-83.51,3.74,69.85,7.47,139.7,11.21,209.55,3.79,4.33,8.09,7.76,12.94,10.36,4.85,2.59,10.25,4.35,16.12,5.38,20.45,3.58,34.97,2.34,43-2.53,7.6-4.61,13.04-11.29,16.34-19.95,3.29-8.66,4.13-18.1,2.06-28.42-6.71-33.55-30.72-62.78-49.93-90.89Z"/><path class="cls-5" d="m836.62,865.6c-2.42-.48-4.98-1.14-7.7-1.99-19.98-6.27-38.96-12.69-56.63-18.64-8.66-2.92-17.76-5.93-27.2-9.04-9.45-3.11-19.24-6.31-29.29-9.55,2.41,8.78,5.5,21.57,9.32,38.64,5.84,1.73,25.88,7.91,62.73,15.09,21,4.1,34.84,6.08,40.7,7.12,6.77,1.2,12.82,3.03,18.04,5.49,5.22,2.46,8.1,5.04,8.67,7.9,1.11,5.49-5.61,8.04-19.35,6.8-8.72-.78-21.99-2.38-38.95-4.58-15.07-1.96-37.91-5.23-67.14-11.15,1.6,8.33,3.12,15.16,4.55,20.41,3.59,13.18,6.81,20.82,9.63,22.86,1.35.98,7.83,2.04,19.53,3.08,6.3.56,15.8,1.29,28.56,2.09,12.76.8,22.37,1.36,28.77,1.76,2.06.13,5.07.16,9.02.1,3.96-.06,6.93-.04,8.9.07,6.02.34,11.36,1.42,15.94,3.13,5.23,1.96,8.15,4.42,8.79,7.53,1.07,5.19-4.18,8.23-15.6,9.25-9.76.88-30.28,1.38-61.64,1.38s-54.42-2.89-65.97-9.75c-12.73-7.55-22.22-24.69-28.45-50.04-2.58-10.52-5.52-26.16-8.73-46.24-3.21-20.09-6.05-34.9-8.61-45.11-.67-2.69-2.18-6.93-4.51-12.83-2.34-5.89-3.84-10.24-4.51-12.96-2.93-11.8,2.6-12.5,17.41-3.23,4.65,2.91,9.23,6.41,13.68,10.43,11.97,5.21,23.81,10.26,35.44,15.08,11.63,4.82,23.06,9.4,34.08,13.71,29.86,11.67,55.5,19.68,75.06,26.34,11.91,4.04,18.28,7.76,19.02,11.91.42,2.34-1.5,4.05-5.54,5.15-4.5,1.23-10.52,1.28-18.01-.2Z"/><path class="cls-5" d="m1175.59,947.64c-12.74,4.67-31.93,8.62-57.29,11.57-23.22,2.69-41.98,3.64-56.42,3.66-24.41.03-35.52-5-33.34-15.09-.17.8,2.41-6.61,8.05-22.59,7.34-20.76,14.14-44.15,19.91-69.54.62-2.72,3.54-5.56,8.86-8.71,5.32-3.16,11.72-5.81,19.02-7.99,7.3-2.18,13.05-3.13,17.26-2.61,4.2.52,5.82,2.34,5,5.4-7.18,26.81-15.17,55.36-25.79,79.93-1.85,4.28-4.83,10.98-8.18,19.75,32.75-2.58,65.16-9.92,96.12-20.84,2.45-.87,4.74-1.49,6.85-1.83,6.34-1.03,11-.16,14.01,2.84,2.69,2.69,3.56,6.16,2.57,10.24-1.66,6.89-7.21,12.34-16.63,15.79Z"/><path class="cls-5" d="m1371.51,947.76c-7.7-.08-15-13.81-21.13-37.99-3.95-15.61-6.96-33.14-8.82-52.55-6.68,3.94-17.67,9.3-33.24,15.65-14.69,5.99-26.34,10.78-34.57,14.56-6.24,12.83-16.78,32.01-32.06,54.35-5.66,7.33-12.38,10.9-20.12,11.19-5.46.21-10.02-1.31-13.67-4.31-3.65-3-4.91-6.83-3.8-11.71.98-4.29,11.7-18.61,31.49-49.49-.78-2.44-.82-4.9-.11-7.39,1.27-4.45,6.75-9.35,16.15-15.19,21.25-33.32,39.26-68.06,56.32-103.67,16.17-35.18,33.12-112.26,50.55-142.61,5.97-10.4,12.17-8.91,13.14,5.89.84,12.75-5.65,68.14-3.82,95.76,3.01,45.23,7.99,90.55,13.23,135.73.54,4.1,2.57,13.42,6.39,28.81,3.16,12.72,4.84,22.88,4.84,29.76,0,9.29-2.07,17.34-6.31,23.78-4.25,6.45-9.11,9.47-14.47,9.41Zm-36.09-192.37c-9.97,28.58-22.42,55.9-35.23,83.29,4.22-3.03,10.63-6.95,19.05-11.93,9.92-5.86,15.98-9.91,18.49-11.8-.62-15.86-1.47-36.05-2.31-59.57Z"/></g><g><path class="cls-5" d="m620.04,1032.64c-1.67-.09-3.42-.45-5.25-1.08-13.5-4.63-26.62-7.33-39.36-8.05-6.25-.35-12.95-.19-20.12.5-7.16.68-14.79,1.89-22.87,3.63,0,12.07-.37,29.97-1.12,53.72,4.66-.18,20.97-1.23,48.86-3.08,15.9-1.06,25.99-1.49,30.24-1.32,4.92.2,9.12,2.03,12.62,5.49,3.5,3.45,5.25,7.91,5.25,13.38,0,10.5-5.57,16.6-15.87,17.39-6.46.5-16.82.76-29.86,1.78-11.68.92-29.66,2.32-53.48,3.74-.58,11.52-.87,20.83-.87,27.91,0,17.81.96,27.95,2.87,30.42.92,1.19,6.16,1.84,15.74,1.94,5.16.05,12.95,0,23.37-.16,10.41-.16,18.2-.21,23.37-.15,1.67.02,4.12-.22,7.37-.72,3.25-.5,5.66-.74,7.25-.72,4.83.05,8.96,1.6,12.37,4.52,3.87,3.31,5.87,7.92,5.87,13.83,0,9.89-4.89,15.78-14.62,17.73-8.32,1.67-25.62,2.53-51.85,2.53s-44.86-3.99-53.1-12.06c-9.08-8.89-13.62-28.21-13.62-57.85,0-12.3.81-30.75,2.44-55.31,1.62-24.56,2.44-42.91,2.44-55.1,0-3.21-.42-7.97-1.25-14.29-.83-6.32-1.25-11.1-1.25-14.3,0-13.94,5.83-20.53,17.49-19.76,3.67.24,7.04,1.6,10.12,4.07,9.66-2.02,18.85-3.38,27.55-4.12,8.7-.73,16.93-.84,24.68-.32,20.99,1.4,37.78,5.1,50.36,11.03,7.66,3.58,11.5,9.41,11.5,17.5,0,4.58-1.56,8.54-4.5,11.89-3.34,3.81-7.58,5.67-12.75,5.39Z"/><path class="cls-5" d="m771.48,1198.52c-9.78,4.36-25.06,8.21-45.61,11.71-18.81,3.2-34.28,4.88-46.36,4.87-20.41,0-30.61-9.43-30.61-28.29,0,1.49.85-12.42,2.5-41.65,2.39-42.23,3.13-84.62,3.25-126.8.01-4.98,1.65-9.14,4.94-12.43,3.29-3.29,7.44-4.77,12.43-4.45,5,.32,9.16,2.33,12.5,6.01,3.33,3.68,5.01,7.99,5,12.92-.13,42.43.05,86.13-3.38,127.57-.56,6.77-1.54,17.54-2.38,31.85,19.74-.13,45.07-4.91,75.98-13.94,1.92-.56,3.75-.83,5.5-.8,5.25.08,9.5,2.11,12.75,6.02,2.9,3.5,4.37,7.39,4.37,11.68,0,7.24-3.64,12.51-10.87,15.73Z"/><path class="cls-5" d="m899.07,1059.86c-4-.2-14.95-1.88-32.86-5.09-1.17,15.04-1.75,35.09-1.75,60.13-.05,22.12-.08,33.17-.13,55.29,11.08-.09,22.37-.04,33.86.12,5,.07,9.14,1.76,12.43,5.04,3.29,3.28,4.94,7.17,4.94,11.69,0,4.52-1.68,8.36-5.04,11.54-3.35,3.17-7.6,4.76-12.7,4.74-4.77-.02-11.91.05-21.45.22-9.54.17-16.68.24-21.45.22-5.62-.02-14.04.66-25.28,2.08-11.22,1.42-19.66,2.13-25.28,2.12-5.1-.01-9.34-1.68-12.7-5.01-3.35-3.32-5.04-7.36-5.04-12.07,0-4.71,1.77-8.73,5.29-12.05,3.52-3.32,7.94-4.94,13.29-4.87,6.06.08,14.02-.45,23.91-1.56-.17-9.8-.25-28.56-.25-56.3,0-22.58.84-44.1,2.5-64.51-10.85-.26-16.27-.39-27.12-.64-5-.26-9.18-2.1-12.56-5.56-3.37-3.45-5.06-7.63-5.06-12.51,0-4.96,1.63-8.91,4.85-11.82,2.97-2.68,6.67-4.09,11.02-4.23,7.09-.24,19.45.21,37.05,1.3,15.83.98,36.23,3.97,61.14,8.91,9.92,1.97,14.89,7.85,14.89,17.62,0,5.17-1.96,9.14-5.77,11.94-3.14,2.31-6.73,3.43-10.73,3.23Z"/><path class="cls-5" d="m973.67,1136.18c-1.42.04-4.92-.16-10.5-.58-.5,11.3-.75,29.84-.75,55.63,0,4.27-1.54,7.95-4.62,11.02-3.08,3.07-7,4.61-11.75,4.62-4.75.01-8.68-1.52-11.81-4.59s-4.69-6.73-4.69-10.99c0-13.46,0-20.19,0-33.65,0-12.46.89-30.95,2.5-55.27,1.63-24.71,2.43-43.24,2.5-55.42.11-20.84,6.16-30.25,18.24-30.14,2.83-.91,6.75-1.7,11.74-2.39,5-.69,11.08-1.27,18.24-1.73,16.33-1.06,31.7,3.09,45.98,12.68,15.9,10.68,23.87,24.69,23.87,41.61,0,21.23-8.46,38.52-25.36,51.42-14.95,11.41-32.86,17.26-53.61,17.79Zm6.25-91.94c-2.67.15-5.02.3-7.06.45-2.04.15-3.77.35-5.19.59,0,3.79-.01,9.51-.12,17.08-.13,8.94-.96,22.97-2.37,41.98,4.25.49,7.08.72,8.5.66,13-.46,23.78-3.85,32.36-10.23,9.16-6.81,13.74-15.59,13.74-26.26,0-6.98-4.32-12.96-12.87-17.91-8.24-4.77-17.24-6.9-26.99-6.36Z"/><path class="cls-5" d="m1129.75,1211.04c-21.16.03-37.83-4.79-49.98-14.1-10.19-7.81-15.37-16.76-15.37-27,0-5.24,1.58-9.62,4.75-13.14,3.17-3.52,7.54-5.34,13.12-5.45,7.5-.15,12.98,3.63,16.5,11.28,4.71,10.25,15.5,15.34,32.24,15.15,14.33-.17,28.21-3.56,41.61-10.17,13.87-6.84,20.87-14.29,20.87-22.26,0-10.91-4.37-17.98-13-21.2-6.15-2.3-18.54-3.43-37.11-3.32-14.41.08-27.35-2.3-38.74-7.09-15.4-6.48-22.97-16.2-22.74-29.16.28-16.3,8.91-31.66,25.99-46.31,17.08-14.65,35.9-22.76,56.48-24.02,8.16-.5,18.25.81,30.24,4,14.91,3.96,22.37,9.18,22.37,15.55,0,4.54-1.52,8.63-4.5,12.26-3.34,4.07-7.62,6.25-12.87,6.51-3.92.19-9.77-.39-17.56-1.73-7.79-1.34-13.7-1.91-17.68-1.7-10.7.58-20.97,3.86-30.62,9.46-9.94,5.77-14.99,11.69-14.99,17.87,0,3.22,1.52,5.8,4.56,7.75,3.04,1.95,7.85,3.51,13.68,3.85,10.16.6,21.41.25,31.87.56,18.28.54,33.16,5.59,43.86,14.64,11.83,10,17.74,24.45,17.75,43.01,0,22.59-12.25,39.93-36.74,51.55-18.64,8.85-39.99,13.18-63.98,13.21Z"/><path class="cls-5" d="m1374.41,1026.73c-1.67.09-3.42-.09-5.25-.54-13.49-3.28-26.61-4.53-39.36-3.82-6.25.35-12.95,1.26-20.12,2.74-7.16,1.47-14.79,3.5-22.87,6.07,0,11.84-.37,29.45-1.12,52.79,4.66-.54,20.97-2.79,48.86-6.89,15.9-2.34,25.99-3.63,30.24-3.81,4.91-.2,9.12,1.34,12.62,4.63,3.5,3.29,5.25,7.78,5.25,13.45,0,10.89-5.55,17.57-15.87,19.01-6.44.9-16.83,1.81-29.86,3.61-11.69,1.62-29.65,4.06-53.48,6.77-.58,11.31-.87,20.43-.87,27.37,0,17.43.96,27.33,2.87,29.71.92,1.15,6.16,1.67,15.74,1.57,5.16-.05,12.95-.27,23.37-.65,10.41-.38,18.2-.6,23.37-.66,1.67-.02,4.12-.32,7.37-.9,3.25-.58,5.66-.88,7.25-.9,4.83-.05,8.96,1.44,12.37,4.38,3.87,3.34,5.87,8.08,5.87,14.21,0,10.24-4.89,16.38-14.62,18.4-8.32,1.73-25.61,2.6-51.85,2.6s-44.86-3.92-53.1-11.66c-9.08-8.53-13.62-26.97-13.62-55.4,0-11.79.81-29.52,2.44-53.22,1.62-23.71,2.44-41.45,2.44-53.17,0-3.08-.42-7.62-1.25-13.61-.83-5.99-1.25-10.52-1.25-13.6,0-13.39,5.83-20.46,17.49-21.22,3.67-.24,7.04.65,10.12,2.67,9.66-3.2,18.85-5.74,27.55-7.61,8.71-1.87,16.93-3.07,24.68-3.59,20.99-1.4,37.78.11,50.35,4.61,7.66,2.71,11.5,8.3,11.5,16.74,0,4.77-1.55,9.09-4.5,12.91-3.34,4.34-7.58,6.73-12.74,7.01Z"/></g><g><rect class="cls-2" x="1346.33" y="549.6" width="18.13" height="18.13"/><g><rect class="cls-2" x="520.93" y="549.6" width="18.13" height="18.13"/><path class="cls-2" d="m539.06,567.74c71.46,151.16,225.34,255.73,403.63,255.73s332.17-104.57,403.64-255.73"/><g><line class="cls-2" x1="1421.18" y1="622.81" x2="1362.12" y2="565.24"/><line class="cls-2" x1="1347.89" y1="551.36" x2="1303.87" y2="508.42"/><circle class="cls-5" cx="1421.19" cy="622.8" r="6.07"/><circle class="cls-5" cx="1303.88" cy="508.43" r="6.07"/></g></g></g></g></g></g></svg>